<?xml version="1.0" standalone="no"?>
<!DOCTYPE svg PUBLIC "-//W3C//DTD SVG 20010904//EN"
 "http://www.w3.org/TR/2001/REC-SVG-20010904/DTD/svg10.dtd">
<svg version="1.0" xmlns="http://www.w3.org/2000/svg"
 width="620.000000pt" height="620.000000pt" viewBox="0 0 620.000000 620.000000"
 preserveAspectRatio="xMidYMid meet">
<metadata>
Created by potrace 1.11, written by Peter Selinger 2001-2013
</metadata>
<g transform="translate(0.000000,620.000000) scale(0.100000,-0.100000)"
fill="#000000" stroke="none">
<path d="M3067 6017 c-15 -62 -28 -114 -28 -117 0 -3 -8 -32 -17 -65 l-18 -60
-155 -57 c-85 -32 -160 -58 -166 -58 -20 0 -15 -18 10 -34 134 -83 255 -161
266 -171 9 -9 14 -45 17 -113 l3 -99 -45 -59 c-25 -33 -48 -61 -50 -63 -9 -9
-35 24 -31 40 6 21 -20 34 -38 19 -17 -14 -78 -3 -90 16 -74 116 -154 194
-199 194 -41 0 7 19 67 26 31 4 57 11 57 15 0 9 -55 63 -177 175 -42 39 -44
44 -38 80 3 22 8 57 11 79 2 22 6 47 9 55 2 8 7 40 10 70 4 30 9 58 12 63 9
15 -14 5 -145 -69 l-136 -76 -141 70 c-77 38 -141 68 -143 67 -4 -3 34 -203
50 -263 l11 -42 -103 -105 c-88 -89 -113 -108 -169 -130 -36 -15 -109 -51
-162 -81 -54 -30 -103 -54 -110 -54 -21 -1 -54 -22 -96 -61 -58 -56 -127 -131
-150 -165 -35 -50 -93 -171 -95 -198 -1 -14 -7 -26 -14 -26 -6 0 -28 -39 -48
-87 -21 -49 -42 -97 -47 -108 -32 -75 -52 -136 -55 -170 -1 -22 -10 -65 -18
-95 -36 -127 -50 -236 -50 -405 -1 -93 2 -197 6 -231 l7 -60 -47 -12 c-96 -25
-226 -99 -307 -174 -158 -147 -238 -298 -362 -680 -68 -211 -73 -295 -29 -498
8 -36 22 -110 31 -165 21 -125 38 -191 72 -280 99 -261 304 -525 523 -675 64
-43 202 -115 260 -135 3 -1 12 -4 20 -8 38 -15 171 -46 225 -53 71 -8 160 -8
233 0 44 5 75 -1 180 -33 70 -21 142 -42 160 -46 30 -6 38 -16 78 -97 142
-290 500 -538 939 -648 174 -44 269 -55 475 -55 180 0 283 9 390 35 272 65
434 154 615 335 92 92 199 243 245 343 26 58 22 57 135 32 51 -11 154 -14 200
-5 112 22 298 101 324 138 8 12 51 56 95 97 43 41 91 94 106 117 15 23 29 40
32 38 3 -3 11 7 18 21 8 14 43 46 79 72 82 57 91 69 89 109 -2 38 -5 35 50 62
23 12 43 26 43 31 2 16 4 23 18 63 10 31 16 36 27 26 11 -9 22 -3 52 27 63 63
149 283 197 506 21 100 31 159 40 238 13 119 13 135 2 142 -9 5 -9 12 -1 25 6
10 10 25 8 33 -17 101 -17 106 1 85 9 -11 14 -15 12 -10 -3 6 -8 35 -12 65 -4
30 -9 64 -10 75 -2 11 -13 58 -25 105 -12 47 -23 90 -24 95 -1 6 -8 21 -16 35
-8 14 -36 72 -62 130 -27 57 -59 115 -72 130 -13 14 -34 44 -46 67 -13 24 -31
45 -40 48 -9 3 -54 42 -100 86 -47 44 -98 88 -115 96 -16 9 -34 21 -40 28 -21
24 -83 62 -150 94 -38 18 -91 43 -117 55 -45 22 -47 22 -80 5 -50 -27 -57 -25
-48 19 5 20 11 48 14 62 2 14 9 45 15 70 16 74 22 103 28 145 5 44 15 32 -155
210 -46 48 -82 88 -80 90 2 1 39 6 83 10 44 3 89 8 100 10 11 3 49 7 85 10 35
3 67 10 71 16 20 33 -39 232 -79 267 -20 16 -24 24 -15 30 9 6 -25 64 -117
203 -71 106 -139 207 -151 222 -22 28 -96 92 -182 154 -24 18 -60 49 -80 68
-22 21 -37 30 -40 22 -3 -8 -24 -2 -70 21 -71 35 -90 52 -60 52 10 0 -47 32
-127 71 -124 61 -154 72 -207 75 -43 2 -71 9 -90 23 -39 29 -196 35 -233 10
-14 -10 -47 -20 -74 -24 -48 -7 -49 -6 -42 19 6 24 5 25 -26 19 -18 -3 -68
-16 -110 -28 -90 -25 -91 -36 10 116 93 141 88 130 55 125 -15 -3 -82 -8 -148
-11 -66 -4 -137 -8 -157 -10 -21 -2 -38 -1 -38 3 0 4 -10 18 -23 32 -12 14
-60 74 -106 133 -47 59 -87 110 -91 112 -3 2 -18 -47 -33 -108z m427 -452 c-4
-8 15 -68 41 -132 26 -65 55 -139 66 -165 l18 -46 -32 9 c-18 6 -39 12 -47 14
-8 2 -73 20 -143 40 -112 32 -130 35 -145 23 -230 -194 -262 -219 -263 -196
-1 13 -2 47 -3 77 l-1 54 250 168 c138 92 253 168 257 168 4 1 5 -6 2 -14z
m741 -57 c-3 -35 -6 -91 -7 -126 -2 -72 -6 -66 127 -166 46 -34 62 -52 53 -57
-11 -6 -115 -35 -158 -44 -67 -14 -67 -14 -100 -103 -17 -48 -35 -96 -40 -107
-5 -11 -10 -26 -12 -34 -4 -13 -13 -2 -98 132 l-44 67 -50 1 c-127 3 -187 6
-191 11 -3 3 28 47 70 98 41 51 75 96 75 100 0 5 -9 36 -19 71 -11 35 -26 87
-34 116 l-15 51 46 -15 c26 -9 52 -19 57 -23 6 -4 38 -17 72 -29 l61 -23 104
71 c56 38 104 70 105 70 1 1 0 -27 -2 -61z m-2075 -94 c69 -3 160 -7 202 -7
88 -2 102 -12 30 -22 -45 -6 -49 -9 -69 -53 -59 -131 -108 -232 -113 -232 -3
0 -36 61 -74 135 -38 74 -74 135 -80 136 -6 0 -18 2 -26 3 -24 5 -121 17 -170
22 -25 3 -54 6 -65 9 -11 2 -24 4 -28 4 -5 1 -5 6 -2 11 6 10 101 9 395 -6z
m-453 -322 c0 -26 2 -75 3 -110 l3 -63 93 -55 c52 -31 92 -60 89 -64 -2 -4
-44 -22 -92 -40 -48 -18 -93 -36 -99 -41 -5 -5 -21 -55 -34 -111 -26 -112 -28
-118 -38 -102 -13 20 -56 75 -89 112 -18 20 -33 41 -33 46 0 8 -197 -1 -212
-10 -4 -2 -9 0 -13 5 -3 6 19 49 50 96 30 47 55 89 55 93 0 4 -18 52 -40 106
-22 54 -40 99 -40 100 0 1 48 -10 107 -25 85 -23 110 -26 122 -16 9 6 47 38
84 69 38 32 71 58 75 58 4 0 8 -21 9 -48z m723 -97 c47 -3 96 -8 110 -10 14
-2 63 -7 110 -10 47 -4 99 -9 115 -11 17 -2 68 -6 115 -10 47 -4 92 -8 100
-10 8 -1 23 -3 33 -3 10 -1 16 -4 14 -8 -5 -9 -18 -111 -22 -183 -2 -25 -6
-92 -10 -150 -3 -58 -8 -197 -10 -310 -1 -113 -6 -259 -11 -325 -10 -152 -10
-321 0 -500 20 -362 27 -636 26 -965 0 -157 -1 -337 0 -400 3 -537 1 -490 24
-491 12 0 32 -2 46 -5 267 -44 247 -43 540 -31 96 4 240 10 320 12 80 3 191 7
248 10 l102 5 1 -117 c0 -65 -1 -152 -2 -193 -1 -41 -2 -127 -3 -190 l-1 -114
-35 -8 c-19 -4 -66 -10 -105 -13 -38 -3 -83 -8 -99 -10 -100 -13 -357 -18
-906 -20 -344 -1 -663 -5 -710 -9 -139 -13 -133 -13 -147 15 -34 69 -43 197
-38 524 3 176 7 370 9 430 12 272 17 400 21 530 3 77 7 187 10 245 10 205 16
573 20 1225 3 363 7 716 9 785 2 69 5 168 6 220 2 84 11 116 30 105 3 -1 43
-6 90 -10z m2255 -318 l0 -135 124 -83 124 -83 -136 -46 c-75 -25 -140 -49
-146 -55 -5 -5 -21 -53 -35 -105 -14 -52 -31 -113 -39 -134 l-13 -39 -90 119
c-86 116 -90 120 -124 118 -137 -10 -259 -10 -253 0 4 6 40 57 80 113 40 56
76 108 79 116 2 7 0 27 -7 43 -6 16 -28 77 -49 136 l-39 106 27 -8 c144 -45
191 -60 215 -69 16 -6 32 -11 36 -11 4 0 59 40 122 89 77 59 116 84 119 75 3
-7 5 -74 5 -147z m-3798 -1099 c-3 -8 -6 -5 -6 6 -1 11 2 17 5 13 3 -3 4 -12
1 -19z m773 -2522 c0 -2 -7 -7 -16 -10 -8 -3 -12 -2 -9 4 6 10 25 14 25 6z
m-90 -46 c0 -5 -4 -10 -10 -10 -5 0 -10 5 -10 10 0 6 5 10 10 10 6 0 10 -4 10
-10z m1235 -558 c-3 -3 -11 0 -18 7 -9 10 -8 11 6 5 10 -3 15 -9 12 -12z"/>
<path d="M5406 4581 c-48 -88 -88 -168 -90 -178 -2 -10 -7 -47 -10 -83 -4 -36
-9 -76 -11 -90 -2 -14 -7 -50 -11 -80 -3 -30 -8 -67 -9 -81 -2 -15 -7 -58 -10
-95 -4 -38 -10 -90 -15 -116 -4 -27 -4 -48 0 -48 4 0 54 22 111 49 60 28 108
46 114 41 5 -5 64 -39 130 -77 66 -38 132 -77 148 -87 l27 -19 -5 54 c-3 30
-8 63 -10 74 -2 11 -7 43 -10 70 -4 28 -10 77 -15 110 -8 59 -8 60 23 90 85
79 211 191 223 198 32 18 9 27 -146 53 -106 18 -191 39 -198 48 -5 6 -39 81
-77 166 -37 85 -69 156 -70 157 -1 2 -41 -69 -89 -156z"/>
</g>
</svg>
